<svg version="1.2" baseProfile="tiny-ps" xmlns="http://www.w3.org/2000/svg" viewBox="0 0 600 117" width="600" height="117"><title>New Project</title><style>tspan { white-space:pre }</style><path fill="#000000" aria-label="All Beef No Bull"  d="M42.92 29.13L29.88 29.13L4.9 91L20.05 91L24.63 78.63L48.17 78.63L52.75 91L67.9 91ZM43.38 66.25L29.43 66.25L36.33 48.25L36.47 48.25ZM70.3 91L83.57 91L83.57 26.5L70.3 26.5ZM92.57 91L105.85 91L105.85 26.5L92.57 26.5ZM135.32 29.13L135.32 91L158.8 91C171.63 91 179.05 83.95 179.05 73.75C179.05 63.78 173.57 59.5 165.85 58.15C171.1 55.45 173.57 50.58 173.57 44.88C173.57 33.1 165.17 29.13 154.52 29.13ZM149.42 53.35L149.42 40L150.55 40C156.7 40 159.92 41.88 159.92 46.3C159.92 51.48 156.63 53.35 150.55 53.35ZM149.42 80.13L149.42 65.5L153.85 65.5C160.52 65.5 164.2 67.53 164.2 73.22C164.2 78.1 160.52 80.13 153.85 80.13ZM224.2 73.6C224.27 73.15 224.27 72.33 224.27 71.8C224.27 58.3 215.35 51.4 203.65 51.4C192.02 51.4 182.5 60.55 182.5 71.8C182.5 82.97 192.02 92.13 203.65 92.13C212.2 92.13 219.25 89.35 223.6 82.08L214 77.28C210.77 80.72 208.9 81.55 204.62 81.55C201.25 81.55 196.3 79.53 196.3 73.6ZM196.67 66.25C196.9 62.73 199.45 60.03 204.02 60.03C207.92 60.03 210.7 62.2 211.3 66.25ZM269.43 73.6C269.5 73.15 269.5 72.33 269.5 71.8C269.5 58.3 260.57 51.4 248.88 51.4C237.25 51.4 227.72 60.55 227.72 71.8C227.72 82.97 237.25 92.13 248.88 92.13C257.43 92.13 264.48 89.35 268.82 82.08L259.23 77.28C256 80.72 254.13 81.55 249.85 81.55C246.47 81.55 241.53 79.53 241.53 73.6ZM241.9 66.25C242.13 62.73 244.68 60.03 249.25 60.03C253.15 60.03 255.93 62.2 256.52 66.25ZM277.6 52.52L272.05 52.52L272.05 62.65L277.6 62.65L277.6 91L290.88 91L290.88 62.65L299.73 62.65L299.73 52.52L290.88 52.52L290.88 44.73C290.88 39.4 291.63 37.15 295 37.15C297.18 37.15 298.98 38.2 298.98 38.2L303.63 28.83C303.63 28.83 299.43 25.38 292.68 25.38C283.08 25.38 277.68 33.1 277.6 44.35ZM338.05 52.6L338.2 52.6L362.8 91L376.9 91L376.9 29.13L362.8 29.13L362.8 67.53L362.65 67.53L338.05 29.13L323.95 29.13L323.95 91L338.05 91ZM383.13 71.8C383.13 83.65 392.43 92.13 406.3 92.13C419.58 92.13 429.25 83.65 429.25 71.8C429.25 59.8 419.05 51.4 406.3 51.4C393.33 51.4 383.13 59.8 383.13 71.8ZM397.23 71.8C397.23 66.47 401.2 62.73 406.23 62.73C411.18 62.73 415.15 66.47 415.15 71.8C415.15 77.05 411.4 80.8 406.23 80.8C400.83 80.8 397.23 77.05 397.23 71.8ZM455.95 29.13L455.95 91L479.43 91C492.25 91 499.68 83.95 499.68 73.75C499.68 63.78 494.2 59.5 486.48 58.15C491.73 55.45 494.2 50.58 494.2 44.88C494.2 33.1 485.8 29.13 475.15 29.13ZM470.05 53.35L470.05 40L471.18 40C477.33 40 480.55 41.88 480.55 46.3C480.55 51.48 477.25 53.35 471.18 53.35ZM470.05 80.13L470.05 65.5L474.48 65.5C481.15 65.5 484.83 67.53 484.83 73.22C484.83 78.1 481.15 80.13 474.48 80.13ZM518.42 52.52L505.15 52.52L505.15 74.05C505.15 86.95 511.6 92.13 526 92.13C540.4 92.13 546.85 86.95 546.85 74.05L546.85 52.52L533.58 52.52L533.58 70.83C533.58 78.4 531.55 81.33 526 81.33C520.45 81.33 518.42 78.4 518.42 70.83ZM555.1 91L568.38 91L568.38 26.5L555.1 26.5ZM577.38 91L590.65 91L590.65 26.5L577.38 26.5Z" /></svg>