<svg version="1.2" baseProfile="tiny-ps" xmlns="http://www.w3.org/2000/svg" viewBox="0 0 70 70" width="70" height="70"><title>paw-icon-svg</title><style>tspan { white-space:pre }.shp0 { fill: #000000 } .txt1 { font-size: 5px;fill: #000000;font-family: "' Helvetica  Neue'" } </style><g ><path fill-rule="evenodd" class="shp0" d="M67 35C67 52.68 52.67 67 35 67C17.32 67 3 52.68 3 35C3 17.33 17.32 3 35 3C52.67 3 67 17.33 67 35ZM37.15 24.03C37.15 26.81 39.41 29.05 42.18 29.05C44.96 29.05 47.2 26.81 47.2 24.03C47.2 21.25 44.96 14.93 42.18 14.93C39.41 14.93 37.15 21.25 37.15 24.03ZM23.02 24.03C23.02 26.81 25.28 29.05 28.04 29.05C30.82 29.05 33.07 26.81 33.07 24.03C33.07 21.25 30.82 14.93 28.04 14.93C25.28 14.93 23.02 21.25 23.02 24.03ZM21.04 34.86C21.04 32.09 18.79 25.77 16.02 25.77C13.25 25.77 10.99 32.09 10.99 34.86C10.99 37.64 13.25 39.89 16.02 39.89C18.79 39.89 21.04 37.64 21.04 34.86ZM50.19 46.57C48.22 38.81 42.72 36.19 38.48 35.36C34.78 34.62 30.88 35.15 27.52 36.87C19.1 41.2 19.68 50.29 19.68 50.29C20.22 57.87 27.53 53.95 27.53 53.95L32.69 51.7C33.63 51.3 34.67 51.15 35.68 51.31C38.26 51.72 41.7 53.3 43.54 54.3C44.54 54.84 45.67 55.18 46.8 55.04C52.01 54.41 50.19 46.57 50.19 46.57ZM59.01 34.86C59.01 32.09 56.76 25.77 53.98 25.77C51.22 25.77 48.96 32.09 48.96 34.86C48.96 37.64 51.22 39.89 53.98 39.89C56.76 39.89 59.01 37.64 59.01 34.86Z" /></g><text style="transform: matrix(1,0,0,1,0,85)" ><tspan x="0" y="0" class="txt1">Created by Vectors Point</tspan></text><text style="transform: matrix(1,0,0,1,0,90)" ><tspan x="0" y="0" class="txt1">from the Noun Project</tspan></text></svg>